<mxfile host="app.diagrams.net" modified="2023-05-18T11:32:50.768Z" agent="5.0 (Macintosh; Intel Mac OS X 10_15_7) AppleWebKit/537.36 (KHTML, like Gecko) Chrome/113.0.0.0 Safari/537.36" etag="ZzXlld1m1GMKo34n_mEy" version="21.0.4" type="github">
  <diagram name="第 1 页" id="hAT8Fx-qvVBSpOgLIFJH">
    <mxGraphModel dx="1085" dy="807" grid="1" gridSize="10" guides="1" tooltips="1" connect="1" arrows="1" fold="1" page="1" pageScale="1" pageWidth="827" pageHeight="1169" math="0" shadow="0">
      <root>
        <mxCell id="0" />
        <mxCell id="1" parent="0" />
        <mxCell id="QSx7zk7HUFhswyVTexCU-1" value="Agent" style="rounded=1;whiteSpace=wrap;html=1;" vertex="1" parent="1">
          <mxGeometry x="220" y="390" width="460" height="20" as="geometry" />
        </mxCell>
        <mxCell id="QSx7zk7HUFhswyVTexCU-2" value="axdns" style="rounded=0;whiteSpace=wrap;html=1;" vertex="1" parent="1">
          <mxGeometry x="220" y="450" width="250" height="100" as="geometry" />
        </mxCell>
        <mxCell id="QSx7zk7HUFhswyVTexCU-3" value="递归软件" style="whiteSpace=wrap;html=1;aspect=fixed;" vertex="1" parent="1">
          <mxGeometry x="530" y="450" width="100" height="100" as="geometry" />
        </mxCell>
        <mxCell id="QSx7zk7HUFhswyVTexCU-4" value="" style="endArrow=classic;html=1;rounded=0;" edge="1" parent="1">
          <mxGeometry width="50" height="50" relative="1" as="geometry">
            <mxPoint x="360" y="280" as="sourcePoint" />
            <mxPoint x="360" y="390" as="targetPoint" />
          </mxGeometry>
        </mxCell>
        <mxCell id="QSx7zk7HUFhswyVTexCU-5" value="" style="endArrow=classic;html=1;rounded=0;" edge="1" parent="1">
          <mxGeometry width="50" height="50" relative="1" as="geometry">
            <mxPoint x="540" y="280" as="sourcePoint" />
            <mxPoint x="540" y="390" as="targetPoint" />
          </mxGeometry>
        </mxCell>
        <mxCell id="QSx7zk7HUFhswyVTexCU-6" value="Cache指令" style="text;html=1;align=center;verticalAlign=middle;resizable=0;points=[];autosize=1;strokeColor=none;fillColor=none;" vertex="1" parent="1">
          <mxGeometry x="320" y="305" width="80" height="30" as="geometry" />
        </mxCell>
        <mxCell id="QSx7zk7HUFhswyVTexCU-7" value="用户线路" style="text;html=1;align=center;verticalAlign=middle;resizable=0;points=[];autosize=1;strokeColor=none;fillColor=none;" vertex="1" parent="1">
          <mxGeometry x="495" y="305" width="70" height="30" as="geometry" />
        </mxCell>
        <mxCell id="QSx7zk7HUFhswyVTexCU-8" value="" style="endArrow=classic;html=1;rounded=0;entryX=0.25;entryY=0;entryDx=0;entryDy=0;exitX=0.728;exitY=1;exitDx=0;exitDy=0;exitPerimeter=0;" edge="1" parent="1" source="QSx7zk7HUFhswyVTexCU-1" target="QSx7zk7HUFhswyVTexCU-3">
          <mxGeometry width="50" height="50" relative="1" as="geometry">
            <mxPoint x="540" y="420" as="sourcePoint" />
            <mxPoint x="440" y="390" as="targetPoint" />
          </mxGeometry>
        </mxCell>
        <mxCell id="QSx7zk7HUFhswyVTexCU-9" value="缓存刷新" style="edgeLabel;html=1;align=center;verticalAlign=middle;resizable=0;points=[];" vertex="1" connectable="0" parent="QSx7zk7HUFhswyVTexCU-8">
          <mxGeometry x="-0.3686" y="-2" relative="1" as="geometry">
            <mxPoint as="offset" />
          </mxGeometry>
        </mxCell>
        <mxCell id="QSx7zk7HUFhswyVTexCU-10" value="缓存刷新、线路下发" style="endArrow=classic;html=1;rounded=0;entryX=0.5;entryY=0;entryDx=0;entryDy=0;exitX=0.27;exitY=1.2;exitDx=0;exitDy=0;exitPerimeter=0;" edge="1" parent="1" source="QSx7zk7HUFhswyVTexCU-1" target="QSx7zk7HUFhswyVTexCU-2">
          <mxGeometry x="-0.0002" width="50" height="50" relative="1" as="geometry">
            <mxPoint x="370" y="420" as="sourcePoint" />
            <mxPoint x="440" y="390" as="targetPoint" />
            <mxPoint as="offset" />
          </mxGeometry>
        </mxCell>
        <mxCell id="QSx7zk7HUFhswyVTexCU-12" value="日志" style="rounded=1;whiteSpace=wrap;html=1;" vertex="1" parent="1">
          <mxGeometry x="230" y="510" width="230" height="30" as="geometry" />
        </mxCell>
        <mxCell id="QSx7zk7HUFhswyVTexCU-13" value="线路存储" style="rounded=1;whiteSpace=wrap;html=1;" vertex="1" parent="1">
          <mxGeometry x="400" y="450" width="60" height="40" as="geometry" />
        </mxCell>
        <mxCell id="QSx7zk7HUFhswyVTexCU-16" value="数据匹配" style="rounded=1;whiteSpace=wrap;html=1;" vertex="1" parent="1">
          <mxGeometry x="230" y="450" width="60" height="40" as="geometry" />
        </mxCell>
        <mxCell id="QSx7zk7HUFhswyVTexCU-17" value="" style="endArrow=classic;html=1;rounded=0;entryX=0.04;entryY=0.2;entryDx=0;entryDy=0;entryPerimeter=0;" edge="1" parent="1" target="QSx7zk7HUFhswyVTexCU-2">
          <mxGeometry width="50" height="50" relative="1" as="geometry">
            <mxPoint x="120" y="470" as="sourcePoint" />
            <mxPoint x="210" y="475" as="targetPoint" />
          </mxGeometry>
        </mxCell>
        <mxCell id="QSx7zk7HUFhswyVTexCU-18" value="Cache" style="rounded=1;whiteSpace=wrap;html=1;" vertex="1" parent="1">
          <mxGeometry x="315" y="450" width="60" height="40" as="geometry" />
        </mxCell>
      </root>
    </mxGraphModel>
  </diagram>
</mxfile>
